<svg width="80" height="80" viewBox="0 0 80 80" fill="none" xmlns="http://www.w3.org/2000/svg">
<rect width="80" height="80" fill="#071D28"/>
<mask id="path-2-outside-1_235_2" maskUnits="userSpaceOnUse" x="6" y="24" width="68" height="32" fill="black">
<rect fill="white" x="6" y="24" width="68" height="32"/>
<path d="M24.64 55H7.4V25H22.96C25.84 25 27.8933 25.56 29.12 26.68C30.3467 27.8 30.96 29.4267 30.96 31.56C30.96 33.72 30.5733 35.3867 29.8 36.56C29.0267 37.7067 27.9733 38.4667 26.64 38.84V39.12C30.5067 39.7867 32.44 42.4267 32.44 47.04C32.44 49.44 31.8 51.3733 30.52 52.84C29.2667 54.28 27.3067 55 24.64 55ZM20.76 43.04H17V47.96H20.68C22.04 47.96 22.72 47.1333 22.72 45.48C22.72 43.8533 22.0667 43.04 20.76 43.04ZM20.04 31.56H17V36.04H19.96C21.1867 36.04 21.8 35.2933 21.8 33.8C21.8 32.3067 21.2133 31.56 20.04 31.56ZM60.4784 41.76L62.7584 25H72.7984L68.1184 55H55.5584L53.3584 43.96H52.7984L50.6384 55H38.1184L33.3984 25H43.4384L45.6784 41.76H45.9584L49.4384 25H56.7584L60.1984 41.76H60.4784Z"/>
</mask>
<path d="M24.64 55H7.4V25H22.96C25.84 25 27.8933 25.56 29.12 26.68C30.3467 27.8 30.96 29.4267 30.96 31.56C30.96 33.72 30.5733 35.3867 29.8 36.56C29.0267 37.7067 27.9733 38.4667 26.64 38.84V39.12C30.5067 39.7867 32.44 42.4267 32.44 47.04C32.44 49.44 31.8 51.3733 30.52 52.84C29.2667 54.28 27.3067 55 24.64 55ZM20.76 43.04H17V47.96H20.68C22.04 47.96 22.72 47.1333 22.72 45.48C22.72 43.8533 22.0667 43.04 20.76 43.04ZM20.04 31.56H17V36.04H19.96C21.1867 36.04 21.8 35.2933 21.8 33.8C21.8 32.3067 21.2133 31.56 20.04 31.56ZM60.4784 41.76L62.7584 25H72.7984L68.1184 55H55.5584L53.3584 43.96H52.7984L50.6384 55H38.1184L33.3984 25H43.4384L45.6784 41.76H45.9584L49.4384 25H56.7584L60.1984 41.76H60.4784Z" fill="white"/>
<path d="M7.4 55H6.4V56H7.4V55ZM7.4 25V24H6.4V25H7.4ZM29.12 26.68L28.4457 27.4185L28.4457 27.4185L29.12 26.68ZM29.8 36.56L30.6291 37.1192L30.635 37.1103L29.8 36.56ZM26.64 38.84L26.3704 37.877L25.64 38.0815V38.84H26.64ZM26.64 39.12H25.64V39.9623L26.4701 40.1055L26.64 39.12ZM30.52 52.84L29.7666 52.1825L29.7657 52.1835L30.52 52.84ZM17 43.04V42.04H16V43.04H17ZM17 47.96H16V48.96H17V47.96ZM17 31.56V30.56H16V31.56H17ZM17 36.04H16V37.04H17V36.04ZM24.64 54H7.4V56H24.64V54ZM8.4 55V25H6.4V55H8.4ZM7.4 26H22.96V24H7.4V26ZM22.96 26C25.7584 26 27.498 26.5532 28.4457 27.4185L29.7943 25.9415C28.2886 24.5668 25.9216 24 22.96 24V26ZM28.4457 27.4185C29.4096 28.2985 29.96 29.6228 29.96 31.56H31.96C31.96 29.2305 31.2838 27.3015 29.7943 25.9415L28.4457 27.4185ZM29.96 31.56C29.96 33.6219 29.5873 35.0656 28.965 36.0097L30.635 37.1103C31.5594 35.7078 31.96 33.8181 31.96 31.56H29.96ZM28.9709 36.0009C28.3304 36.9506 27.4755 37.5676 26.3704 37.877L26.9096 39.803C28.4712 39.3657 29.7229 38.4628 30.6291 37.1191L28.9709 36.0009ZM25.64 38.84V39.12H27.64V38.84H25.64ZM26.4701 40.1055C28.2022 40.4041 29.3993 41.1204 30.1832 42.1908C30.9822 43.2819 31.44 44.8613 31.44 47.04H33.44C33.44 44.6054 32.9311 42.5581 31.7968 41.0092C30.6473 39.4396 28.9445 38.5026 26.8099 38.1345L26.4701 40.1055ZM31.44 47.04C31.44 49.2568 30.8529 50.9377 29.7666 52.1825L31.2734 53.4975C32.7471 51.809 33.44 49.6232 33.44 47.04H31.44ZM29.7657 52.1835C28.7686 53.3291 27.1366 54 24.64 54V56C27.4767 56 29.7647 55.2309 31.2743 53.4965L29.7657 52.1835ZM20.76 42.04H17V44.04H20.76V42.04ZM16 43.04V47.96H18V43.04H16ZM17 48.96H20.68V46.96H17V48.96ZM20.68 48.96C21.5712 48.96 22.4028 48.6797 22.9823 47.9753C23.531 47.3082 23.72 46.4185 23.72 45.48H21.72C21.72 46.1948 21.569 46.5451 21.4377 46.7047C21.3372 46.827 21.1488 46.96 20.68 46.96V48.96ZM23.72 45.48C23.72 44.5591 23.5394 43.6832 23.0096 43.0237C22.4462 42.3224 21.6326 42.04 20.76 42.04V44.04C21.194 44.04 21.3604 44.1643 21.4504 44.2763C21.5739 44.4301 21.72 44.7742 21.72 45.48H23.72ZM20.04 30.56H17V32.56H20.04V30.56ZM16 31.56V36.04H18V31.56H16ZM17 37.04H19.96V35.04H17V37.04ZM19.96 37.04C20.785 37.04 21.5668 36.7794 22.1127 36.1147C22.6278 35.4877 22.8 34.6582 22.8 33.8H20.8C20.8 34.4351 20.6656 34.7256 20.5673 34.8453C20.4999 34.9273 20.3616 35.04 19.96 35.04V37.04ZM22.8 33.8C22.8 32.9496 22.6376 32.1274 22.1463 31.5022C21.619 30.8311 20.8537 30.56 20.04 30.56V32.56C20.3996 32.56 20.5143 32.6623 20.5737 32.7378C20.6691 32.8593 20.8 33.1571 20.8 33.8H22.8ZM60.4784 41.76V42.76H61.3516L61.4693 41.8948L60.4784 41.76ZM62.7584 25V24H61.8853L61.7676 24.8652L62.7584 25ZM72.7984 25L73.7865 25.1541L73.9665 24H72.7984V25ZM68.1184 55V56H68.9745L69.1065 55.1541L68.1184 55ZM55.5584 55L54.5777 55.1954L54.7381 56H55.5584V55ZM53.3584 43.96L54.3392 43.7646L54.1788 42.96H53.3584V43.96ZM52.7984 43.96V42.96H51.9751L51.817 43.768L52.7984 43.96ZM50.6384 55V56H51.4617L51.6198 55.192L50.6384 55ZM38.1184 55L37.1306 55.1554L37.2635 56H38.1184V55ZM33.3984 25V24H32.2288L32.4106 25.1554L33.3984 25ZM43.4384 25L44.4296 24.8675L44.3137 24H43.4384V25ZM45.6784 41.76L44.6873 41.8925L44.8032 42.76H45.6784V41.76ZM45.9584 41.76V42.76H46.7721L46.9376 41.9633L45.9584 41.76ZM49.4384 25V24H48.6247L48.4593 24.7967L49.4384 25ZM56.7584 25L57.738 24.7989L57.574 24H56.7584V25ZM60.1984 41.76L59.2189 41.9611L59.3828 42.76H60.1984V41.76ZM61.4693 41.8948L63.7493 25.1348L61.7676 24.8652L59.4876 41.6252L61.4693 41.8948ZM62.7584 26H72.7984V24H62.7584V26ZM71.8104 24.8459L67.1304 54.8459L69.1065 55.1541L73.7865 25.1541L71.8104 24.8459ZM68.1184 54H55.5584V56H68.1184V54ZM56.5392 54.8046L54.3392 43.7646L52.3777 44.1554L54.5777 55.1954L56.5392 54.8046ZM53.3584 42.96H52.7984V44.96H53.3584V42.96ZM51.817 43.768L49.657 54.808L51.6198 55.192L53.7798 44.152L51.817 43.768ZM50.6384 54H38.1184V56H50.6384V54ZM39.1063 54.8446L34.3863 24.8446L32.4106 25.1554L37.1306 55.1554L39.1063 54.8446ZM33.3984 26H43.4384V24H33.3984V26ZM42.4473 25.1325L44.6873 41.8925L46.6696 41.6275L44.4296 24.8675L42.4473 25.1325ZM45.6784 42.76H45.9584V40.76H45.6784V42.76ZM46.9376 41.9633L50.4176 25.2033L48.4593 24.7967L44.9793 41.5567L46.9376 41.9633ZM49.4384 26H56.7584V24H49.4384V26ZM55.7789 25.2011L59.2189 41.9611L61.178 41.5589L57.738 24.7989L55.7789 25.2011ZM60.1984 42.76H60.4784V40.76H60.1984V42.76Z" fill="white" mask="url(#path-2-outside-1_235_2)"/>
</svg>
